<?xml version="1.0" encoding="utf-8"?>
<!-- Svg Vector Icons : http://www.onlinewebfonts.com/icon -->
<!DOCTYPE svg PUBLIC "-//W3C//DTD SVG 1.1//EN" "http://www.w3.org/Graphics/SVG/1.1/DTD/svg11.dtd">
<svg version="1.1" xmlns="http://www.w3.org/2000/svg" xmlns:xlink="http://www.w3.org/1999/xlink" x="0px" y="0px" viewBox="0 0 1000 1000" enable-background="new 0 0 1000 1000" xml:space="preserve">
<g><g id="_x33_e91140ac1bfb9903b91c1b0ca099d6d"><path fill="#ffffff" d="M220.8,265.2l-78.1,78.1V141.7h201.5l-79.4,79.4l-6,6l6,6l184.4,184.4v30.2h-33.9L232.8,265.2l-6.1-6.1L220.8,265.2z M449.2,393.5V141.7h-80.9l-85.4,85.4L449.2,393.5z M226.7,283.3l-84.1,84.1v80.3h248.4L226.7,283.3z M552,392.3l165.2-165.2l-86.5-86.6H552V392.3z M741.3,227.1l-6.1,6L552,416.5v31.2h32.1l182.8-182.9l6-6l6.1,6l80,80.1V140.6H654.6l80.6,80.6L741.3,227.1z M466.2,124.6v8.6v277.4l33.8,33.8l35-35V132.1v-8.6h8.6h70L500,9.9L385.4,124.6h72.2H466.2z M608.2,447.7H859v-78.6l-86.1-86.2L608.2,447.7z M443.9,500.5l-35.6-35.6H134.1h-8.4v-8.6v-71.9L10,500.1l115.6,115.7v-74.2v-8.4h8.4h277.2L443.9,500.5z M552,609.9v247.3h80.2l83.5-83.6L552,609.9z M227.1,717.3l167.1-167.1H142.7v82.7L227.1,717.3z M772.9,717.3l86.1-86.2v-81H605.9L772.9,717.3z M876.2,613.9L990,500.1L876.2,386.2v70.1v8.6h-8.6H591.1l-35.2,35.2l33,33h278.7h8.6v8.4L876.2,613.9L876.2,613.9z M772.9,741.3l-6-6L581.7,550.1H552v35.7l181.8,181.8l6,6l-6,6.1l-77.4,77.5H859v-202l-80,80.1L772.9,741.3z M535,874.3v-8.6V592.9l-35.6-35.6l-32.6,32.6v275.8v8.6h-8.6h-74.7l115.9,115.8l115.8-115.8h-71.6H535z M258.8,773.7l6-6l184.9-184.9v-32.6h-31.4L233.1,735.3l-6,6l-6-6l-78.5-78.5v200.4h199.6l-77.4-77.5L258.8,773.7z M449.7,606.9L282.9,773.7l83.5,83.6h83.3V606.9z"/></g></g>
</svg>